<svg width="99" height="205" viewBox="0 0 99 205" fill="none" xmlns="http://www.w3.org/2000/svg">
<mask id="path-1-inside-1_3527_231" fill="white">
<path fill-rule="evenodd" clip-rule="evenodd" d="M49.5002 0C49.5002 0 86.1537 33.0915 95.0473 69.6056C103.941 106.12 95.0473 187 95.0473 187H87V205H61V187H38V205H12V187H3.95314C3.95314 187 -4.94103 106.12 3.95259 69.6056C12.8462 33.0915 49.5002 0 49.5002 0Z"/>
</mask>
<path d="M49.5002 0L52.8508 -3.71126L49.5002 -6.73624L46.1496 -3.71128L49.5002 0ZM95.0473 187V192H99.5276L100.017 187.547L95.0473 187ZM87 187V182H82V187H87ZM87 205V210H92V205H87ZM61 205H56V210H61V205ZM61 187H66V182H61V187ZM38 187V182H33V187H38ZM38 205V210H43V205H38ZM12 205H7.00004V210H12V205ZM12 187H17V182H12V187ZM3.95314 187L-1.0169 187.547L-0.527169 192H3.95314V187ZM3.95259 69.6056L-0.905384 68.4223L3.95259 69.6056ZM99.9053 68.4223C95.2016 49.1107 83.2808 31.027 72.8422 17.9856C67.5827 11.4146 62.6109 6.01525 58.9491 2.25349C57.1167 0.371007 55.6081 -1.10568 54.5503 -2.11843C54.0212 -2.62492 53.6046 -3.0157 53.3162 -3.28352C53.1719 -3.41744 53.0597 -3.52064 52.9815 -3.59223C52.9424 -3.62802 52.9118 -3.65591 52.8899 -3.67579C52.879 -3.68572 52.8703 -3.69366 52.8637 -3.69958C52.8605 -3.70253 52.8577 -3.70499 52.8556 -3.70694C52.8545 -3.70791 52.8533 -3.70899 52.8528 -3.70948C52.8517 -3.71043 52.8508 -3.71126 49.5002 0C46.1496 3.71126 46.149 3.71068 46.1485 3.71023C46.1485 3.71025 46.1481 3.70993 46.1482 3.70996C46.1482 3.71003 46.1489 3.7106 46.15 3.71167C46.1524 3.7138 46.157 3.71793 46.1637 3.72403C46.1771 3.73625 46.1992 3.75638 46.2297 3.78431C46.2908 3.84018 46.3855 3.92725 46.5119 4.04461C46.7647 4.27936 47.1442 4.63519 47.6348 5.10487C48.6162 6.04444 50.0407 7.4383 51.7834 9.22868C55.2721 12.8126 60.0195 17.9683 65.0351 24.2345C75.1466 36.8673 85.9994 53.5864 90.1893 70.7888L99.9053 68.4223ZM95.0473 187C100.017 187.547 100.017 187.546 100.018 187.545C100.018 187.544 100.018 187.543 100.018 187.541C100.018 187.538 100.019 187.534 100.019 187.529C100.02 187.518 100.022 187.502 100.024 187.482C100.029 187.44 100.035 187.38 100.044 187.301C100.061 187.142 100.086 186.909 100.118 186.604C100.182 185.993 100.274 185.097 100.388 183.946C100.616 181.643 100.93 178.318 101.28 174.216C101.979 166.016 102.818 154.696 103.377 142.22C104.487 117.491 104.544 87.4652 99.9053 68.4223L90.1893 70.7888C94.4447 88.2599 94.5017 116.931 93.3874 141.771C92.8354 154.08 92.0068 165.261 91.316 173.367C90.9708 177.419 90.6602 180.698 90.4364 182.961C90.3245 184.093 90.2342 184.97 90.1722 185.562C90.1412 185.858 90.1172 186.083 90.1011 186.233C90.0931 186.308 90.087 186.364 90.083 186.401C90.081 186.419 90.0795 186.433 90.0785 186.442C90.0781 186.446 90.0777 186.449 90.0775 186.451C90.0774 186.452 90.0773 186.453 90.0773 186.453C90.0773 186.454 90.0773 186.453 95.0473 187ZM87 192H95.0473V182H87V192ZM82 187V205H92V187H82ZM87 200H61V210H87V200ZM66 205V187H56V205H66ZM38 192H61V182H38V192ZM43 205V187H33V205H43ZM12 210H38V200H12V210ZM7.00004 187V205H17V187H7.00004ZM3.95314 192H12V182H3.95314V192ZM-0.905384 68.4223C-5.54362 87.4653 -5.48654 117.491 -4.37722 142.22C-3.81753 154.696 -2.97843 166.016 -2.27955 174.217C-1.92998 178.318 -1.61517 181.643 -1.38738 183.946C-1.27347 185.097 -1.1813 185.993 -1.11738 186.604C-1.08542 186.909 -1.06053 187.142 -1.04351 187.301C-1.035 187.38 -1.02846 187.44 -1.02399 187.482C-1.02176 187.502 -1.02004 187.518 -1.01886 187.529C-1.01826 187.534 -1.0178 187.538 -1.01748 187.541C-1.01731 187.543 -1.01717 187.544 -1.01709 187.545C-1.01698 187.546 -1.0169 187.547 3.95314 187C8.92318 186.453 8.92319 186.454 8.92316 186.453C8.92311 186.453 8.92305 186.452 8.92294 186.451C8.92273 186.449 8.92238 186.446 8.9219 186.442C8.92094 186.433 8.91945 186.419 8.91744 186.401C8.91343 186.364 8.90735 186.308 8.8993 186.233C8.8832 186.083 8.85924 185.858 8.82823 185.562C8.7662 184.97 8.67597 184.093 8.56405 182.961C8.34019 180.698 8.02962 177.419 7.68433 173.367C6.99347 165.261 6.16488 154.08 5.61273 141.771C4.49837 116.931 4.55518 88.2599 8.81057 70.7888L-0.905384 68.4223ZM49.5002 0C46.1496 -3.71128 46.1487 -3.71046 46.1477 -3.7095C46.1471 -3.70902 46.1459 -3.70793 46.1448 -3.70696C46.1427 -3.70501 46.14 -3.70256 46.1367 -3.6996C46.1302 -3.69368 46.1214 -3.68575 46.1105 -3.67581C46.0886 -3.65593 46.058 -3.62804 46.0189 -3.59225C45.9407 -3.52066 45.8285 -3.41746 45.6843 -3.28354C45.3958 -3.01572 44.9792 -2.62494 44.4501 -2.11846C43.3923 -1.1057 41.8837 0.370982 40.0512 2.25347C36.3894 6.01523 31.4176 11.4146 26.158 17.9855C15.7193 31.027 3.79831 49.1106 -0.905384 68.4223L8.81057 70.7888C13.0005 53.5864 23.8534 36.8674 33.965 24.2345C38.9807 17.9683 43.7281 12.8127 47.2169 9.2287C48.9597 7.43832 50.3842 6.04446 51.3656 5.10489C51.8562 4.63522 52.2357 4.27939 52.4885 4.04464C52.6149 3.92727 52.7096 3.8402 52.7707 3.78433C52.8012 3.7564 52.8233 3.73627 52.8367 3.72406C52.8434 3.71795 52.848 3.71382 52.8503 3.71169C52.8515 3.71062 52.8521 3.71005 52.8522 3.70999C52.8523 3.70995 52.8519 3.71028 52.8519 3.71026C52.8514 3.71071 52.8508 3.71128 49.5002 0Z" fill="#00E9E9" mask="url(#path-1-inside-1_3527_231)"/>
</svg>
