<svg width="99" height="205" viewBox="0 0 99 205" fill="none" xmlns="http://www.w3.org/2000/svg">
<mask id="path-1-inside-1_3527_231" fill="white">
<path fill-rule="evenodd" clip-rule="evenodd" d="M49.5002 0C49.5002 0 86.1537 33.0915 95.0473 69.6056C103.941 106.12 95.0473 187 95.0473 187H87V205H61V187H38V205H12V187H3.95312C3.95312 187 -4.94104 106.12 3.95258 69.6056C12.8462 33.0915 49.5002 0 49.5002 0Z"/>
</mask>
<path d="M49.5002 0L50.8404 -1.4845L49.5002 -2.69449L48.16 -1.48451L49.5002 0ZM95.0473 187V189H96.8394L97.0353 187.219L95.0473 187ZM87 187V185H85V187H87ZM87 205V207H89V205H87ZM61 205H59V207H61V205ZM61 187H63V185H61V187ZM38 187V185H36V187H38ZM38 205V207H40V205H38ZM12 205H10V207H12V205ZM12 187H14V185H12V187ZM3.95312 187L1.96511 187.219L2.161 189H3.95312V187ZM3.95258 69.6056L2.00939 69.1323L3.95258 69.6056ZM96.9905 69.1323C92.4409 50.4534 80.8405 32.7791 70.5 19.8602C65.3137 13.3807 60.4092 8.05447 56.7994 4.34605C54.9938 2.49119 53.5105 1.03936 52.4756 0.0485582C51.9581 -0.446885 51.5526 -0.82718 51.2749 -1.08508C51.136 -1.21403 51.029 -1.31239 50.956 -1.37926C50.9194 -1.4127 50.8914 -1.43826 50.872 -1.45584C50.8624 -1.46463 50.8549 -1.47142 50.8496 -1.4762C50.847 -1.47859 50.8449 -1.48048 50.8434 -1.48187C50.8426 -1.48256 50.8419 -1.48322 50.8415 -1.48356C50.8409 -1.4841 50.8404 -1.4845 49.5002 0C48.16 1.4845 48.1598 1.48435 48.1597 1.48432C48.1599 1.48448 48.16 1.48458 48.1604 1.48489C48.1611 1.48552 48.1623 1.48666 48.1641 1.48829C48.1677 1.49156 48.1736 1.49683 48.1815 1.50409C48.1975 1.5186 48.2222 1.54106 48.2553 1.57135C48.3214 1.63193 48.4214 1.72384 48.5531 1.84617C48.8166 2.09084 49.2073 2.45716 49.7094 2.93788C50.7137 3.8994 52.1634 5.31811 53.9331 7.13612C57.4737 10.7734 62.2885 16.0022 67.3772 22.3598C77.5869 35.1152 88.76 52.2437 93.1041 70.0789L96.9905 69.1323ZM95.0473 187C97.0353 187.219 97.0354 187.218 97.0354 187.217C97.0355 187.217 97.0356 187.216 97.0358 187.214C97.0361 187.212 97.0365 187.208 97.0371 187.203C97.0382 187.192 97.0398 187.177 97.042 187.157C97.0463 187.118 97.0527 187.058 97.0611 186.98C97.0778 186.825 97.1025 186.594 97.1341 186.291C97.1975 185.686 97.2891 184.796 97.4024 183.65C97.629 181.359 97.9425 178.048 98.2907 173.962C98.9872 165.79 99.823 154.511 100.38 142.085C101.491 117.323 101.514 87.7036 96.9905 69.1323L93.1041 70.0789C97.4743 88.0215 97.4971 117.099 96.3844 141.906C95.8301 154.264 94.9984 165.488 94.3052 173.622C93.9586 177.689 93.6468 180.982 93.4218 183.256C93.3093 184.394 93.2185 185.277 93.1559 185.874C93.1246 186.173 93.1003 186.401 93.084 186.553C93.0758 186.63 93.0696 186.687 93.0654 186.725C93.0633 186.744 93.0618 186.758 93.0608 186.768C93.0602 186.773 93.0599 186.776 93.0596 186.778C93.0595 186.779 93.0594 186.78 93.0593 186.781C93.0593 186.781 93.0593 186.781 95.0473 187ZM87 189H95.0473V185H87V189ZM85 187V205H89V187H85ZM87 203H61V207H87V203ZM63 205V187H59V205H63ZM38 189H61V185H38V189ZM40 205V187H36V205H40ZM12 207H38V203H12V207ZM10 187V205H14V187H10ZM3.95312 189H12V185H3.95312V189ZM2.00939 69.1323C-2.51399 87.7036 -2.49108 117.323 -1.38025 142.085C-0.822819 154.511 0.0131269 165.79 0.709598 173.962C1.05788 178.048 1.37142 181.359 1.59804 183.65C1.71135 184.796 1.80294 185.686 1.86629 186.291C1.89796 186.594 1.92258 186.825 1.93932 186.98C1.94769 187.058 1.95409 187.118 1.95842 187.157C1.96059 187.177 1.96224 187.192 1.96336 187.203C1.96392 187.208 1.96434 187.212 1.96464 187.214C1.96478 187.216 1.9649 187.217 1.96497 187.217C1.96506 187.218 1.96511 187.219 3.95312 187C5.94114 186.781 5.94112 186.781 5.94107 186.781C5.94101 186.78 5.94093 186.779 5.9408 186.778C5.94055 186.776 5.94017 186.773 5.93966 186.768C5.93863 186.758 5.93707 186.744 5.935 186.725C5.93085 186.687 5.92463 186.629 5.91644 186.553C5.90007 186.401 5.87583 186.173 5.84453 185.874C5.78194 185.277 5.69113 184.394 5.57861 183.256C5.35357 180.982 5.04173 177.689 4.69515 173.622C4.00189 165.488 3.17014 154.264 2.61573 141.906C1.50289 117.099 1.52553 88.0215 5.89577 70.0789L2.00939 69.1323ZM49.5002 0C48.16 -1.48451 48.1595 -1.48411 48.1589 -1.48357C48.1585 -1.48323 48.1578 -1.48257 48.157 -1.48188C48.1555 -1.48049 48.1534 -1.4786 48.1508 -1.47621C48.1455 -1.47143 48.138 -1.46464 48.1283 -1.45585C48.109 -1.43827 48.081 -1.41271 48.0444 -1.37927C47.9714 -1.3124 47.8644 -1.21404 47.7255 -1.08509C47.4478 -0.82719 47.0423 -0.446895 46.5248 0.0485484C45.4898 1.03935 44.0065 2.49118 42.2009 4.34604C38.591 8.05446 33.6865 13.3807 28.5001 19.8602C18.1595 32.7791 6.55895 50.4534 2.00939 69.1323L5.89577 70.0789C10.2398 52.2437 21.4131 35.1152 31.6229 22.3598C36.7117 16.0022 41.5265 10.7734 45.0672 7.13613C46.8369 5.31812 48.2866 3.89941 49.2909 2.93789C49.7931 2.45717 50.1837 2.09085 50.4472 1.84618C50.579 1.72385 50.6789 1.63194 50.7451 1.57136C50.7782 1.54107 50.8029 1.51861 50.8188 1.5041C50.8268 1.49684 50.8326 1.49157 50.8362 1.4883C50.838 1.48667 50.8393 1.48553 50.84 1.4849C50.8403 1.48459 50.8405 1.48449 50.8406 1.48433C50.8406 1.48436 50.8404 1.48451 49.5002 0Z" fill="#00E9E9" mask="url(#path-1-inside-1_3527_231)"/>
</svg>
